<svg width="29" height="29" viewBox="0 0 29 29" fill="none" xmlns="http://www.w3.org/2000/svg">
<rect x="28" y="1" width="27" height="27" rx="13.5" transform="rotate(90 28 1)" stroke="#EEEEEE" stroke-linecap="round" stroke-linejoin="round" stroke-dasharray="5 6"/>
<path d="M6.53906 16.0312C6.35156 15.6094 6.25781 15.1133 6.25781 14.543C6.25781 13.9727 6.34766 13.4688 6.52734 13.0312C6.71484 12.5859 6.96875 12.2031 7.28906 11.8828C7.96875 11.2188 8.82031 10.8867 9.84375 10.8867C10.9141 10.8867 11.7969 11.1328 12.4922 11.625C13.2734 12.1875 13.6641 12.9922 13.6641 14.0391C13.6641 15.3359 13.3633 16.293 12.7617 16.9102C12.168 17.5273 11.2383 17.8359 9.97266 17.8359C8.21484 17.8359 7.07031 17.2344 6.53906 16.0312ZM7.21875 14.3086C7.21875 16.1523 8.14844 17.0742 10.0078 17.0742C10.9219 17.0742 11.6641 16.8008 12.2344 16.2539C12.8047 15.7148 13.0898 15.0078 13.0898 14.1328C13.0898 13.3125 12.75 12.6875 12.0703 12.2578C11.4922 11.8828 10.7617 11.6953 9.87891 11.6953C9.17578 11.6953 8.55469 11.9492 8.01562 12.457C7.48438 12.9648 7.21875 13.582 7.21875 14.3086ZM15.4219 11.0391C15.8516 10.625 16.6289 10.418 17.7539 10.418C18.457 10.418 19.0469 10.4883 19.5234 10.6289C20 10.7695 20.3555 10.918 20.5898 11.0742C20.832 11.2305 20.9531 11.4023 20.9531 11.5898C20.9531 12.0195 20.4531 12.4453 19.4531 12.8672C19.3047 12.9375 18.9141 13.082 18.2812 13.3008C17.6562 13.5117 17.2344 13.6562 17.0156 13.7344C16.5391 13.9141 16.2227 14.0547 16.0664 14.1562C16.0664 14.1953 16.082 14.2305 16.1133 14.2617C16.1445 14.2852 16.2188 14.332 16.3359 14.4023C16.4531 14.4648 16.6289 14.5586 16.8633 14.6836C17.0977 14.8008 17.4219 14.9727 17.8359 15.1992C19.0703 15.8711 20.3398 16.5898 21.6445 17.3555C21.707 17.4023 21.7891 17.4688 21.8906 17.5547C21.9922 17.6328 22.043 17.7227 22.043 17.8242C22.043 17.918 22.0117 17.9844 21.9492 18.0234C21.8867 18.0625 21.8125 18.0898 21.7266 18.1055C21.6406 18.1289 21.5508 18.1406 21.457 18.1406H21.2227C21.0664 18.1406 20.7383 17.9727 20.2383 17.6367C19.7461 17.3008 19.3164 17.0078 18.9492 16.7578C18.5898 16.5078 18.2227 16.2656 17.8477 16.0312C16.9648 15.4609 16.2656 15.0898 15.75 14.918V17.6016C15.75 17.7578 15.6172 17.8359 15.3516 17.8359H15.2227C15.0586 17.8359 14.9375 17.7539 14.8594 17.5898C14.75 17.3398 14.6953 16.8789 14.6953 16.207L14.7305 13.8516C14.7305 12.6953 14.6797 11.6797 14.5781 10.8047C14.7656 10.4844 14.9961 10.4961 15.2695 10.8398C15.332 10.918 15.3828 10.9844 15.4219 11.0391ZM19.3828 11.1797L18.6211 11.168C16.8555 11.168 15.8398 11.3711 15.5742 11.7773C15.4961 11.8867 15.457 12.0273 15.457 12.1992C15.457 12.3633 15.4648 12.5078 15.4805 12.6328C15.5195 12.9531 15.6094 13.1836 15.75 13.3242C15.7734 13.332 15.8125 13.3359 15.8672 13.3359C15.9297 13.3359 16.0391 13.3203 16.1953 13.2891C16.3594 13.2578 16.5742 13.2031 16.8398 13.125C17.1133 13.0391 17.4023 12.9375 17.707 12.8203C18.0117 12.7031 18.3047 12.582 18.5859 12.457C19.4688 12.0586 19.9102 11.7344 19.9102 11.4844C19.9102 11.3438 19.7344 11.2422 19.3828 11.1797Z" fill="#EEEEEE"/>
</svg>
